<?xml version="1.0" encoding="utf-8"?>
<svg xmlns="http://www.w3.org/2000/svg" style="margin: auto; background: none; display: block; shape-rendering: auto;" width="103" height="46" preserveAspectRatio="xMidYMid">
<style type="text/css">
  text {
    text-anchor: middle; font-size: 35px; opacity: 0;
  }
</style>
<g style="transform-origin:51.5px 23px;transform:scale(1)">
<g transform="translate(51.5,23)">
  <g transform="translate(0,0)"><g class="path" style="opacity: 1; transform-origin: -38.995px -1.74224px; animation: 1.78571s linear -1.42857s infinite normal forwards running fade-d9f39c8a-940d-473f-8259-81df4446f51f;"><path d="M5.02 0L14.42 0L14.42 0Q14.42-0.75 13.88-0.85L13.88-0.85L13.88-0.85Q13.71-0.89 13.54-0.89L13.54-0.89L11.21-0.89L11.21-19.62L13.19-19.62L13.19-19.62Q15.96-19.62 16.88-16.27L16.88-16.27L16.88-16.27Q16.88-16.13 16.92-16.06L16.92-16.06L17.47-13.77L18.42-13.77L18.25-20.51L1.37-20.51L1.20-13.77L2.15-13.77L2.70-16.06L2.70-16.06Q3.79-19.41 6.43-19.62L6.43-19.62L8.27-19.62L8.27-0.89L5.02-0.89L5.02 0" fill="#00b0ff" stroke="none" stroke-width="none" transform="translate(-48.805023193359375,8.512763061523438)" style="fill: rgb(0, 176, 255);"></path></g><g class="path" style="opacity: 1; transform-origin: -18.71px -1.74224px; animation: 1.78571s linear -1.07143s infinite normal forwards running fade-d9f39c8a-940d-473f-8259-81df4446f51f;"><path d="M33.19 0L40.57 0L40.57 0Q40.57-0.75 40.02-0.85L40.02-0.85L40.02-0.85Q39.85-0.89 39.68-0.89L39.68-0.89L38.52-0.89L30.69-20.51L29.43-20.51L21.77-0.89L19.62-0.89L19.62 0L25.70 0L25.70 0Q25.70-0.75 25.16-0.85L25.16-0.85L25.16-0.85Q24.99-0.89 24.81-0.89L24.81-0.89L23.14-0.89L25.70-7.52L32.85-7.52L35.41-0.89L33.19-0.89L33.19 0zM29.26-16.78L32.47-8.51L26.08-8.51L29.26-16.78" fill="#00b0ff" stroke="none" stroke-width="none" transform="translate(-48.805023193359375,8.512763061523438)" style="fill: rgb(0, 176, 255);"></path></g><g class="path" style="opacity: 1; transform-origin: 1.09498px 1.96776px; animation: 1.78571s linear -0.714286s infinite normal forwards running fade-d9f39c8a-940d-473f-8259-81df4446f51f;"><path d="M57.18-5.37L57.18-5.37L57.18-5.37Q57.18-8.41 53.90-10.25L53.90-10.25L53.90-10.25Q53.25-10.60 49.90-12.07L49.90-12.07L49.90-12.07Q46.86-13.36 46.07-14.73L46.07-14.73L46.07-14.73Q45.66-15.48 45.66-16.34L45.66-16.34L45.66-16.34Q45.66-18.63 47.89-19.52L47.89-19.52L47.89-19.52Q48.84-19.89 50.00-19.89L50.00-19.89L50.00-19.89Q52.88-19.89 54.38-17.94L54.38-17.94L54.38-17.94Q55.37-16.61 55.34-14.70L55.34-14.70L56.36-14.70L56.36-20.68L56.36-20.68Q55.54-20.68 55.41-20.17L55.41-20.17L55.41-20.17Q55.34-19.93 55.34-19.52L55.34-19.52L55.34-19.52Q52.91-20.85 49.87-20.85L49.87-20.85L49.87-20.85Q46.18-20.85 44.13-18.80L44.13-18.80L44.13-18.80Q42.76-17.36 42.76-15.45L42.76-15.45L42.76-15.45Q42.76-12.58 45.97-10.77L45.97-10.77L45.97-10.77Q46.55-10.46 49.87-9.02L49.87-9.02L49.87-9.02Q52.94-7.66 53.76-6.25L53.76-6.25L53.76-6.25Q54.21-5.47 54.21-4.55L54.21-4.55L54.21-4.55Q54.21-2.15 51.88-1.09L51.88-1.09L51.88-1.09Q50.79-0.62 49.46-0.62L49.46-0.62L49.46-0.62Q44.23-0.68 43.65-7.01L43.65-7.01L42.62-7.01L42.62 0.07L42.62 0.07Q43.44 0.07 43.58-0.41L43.58-0.41L43.58-0.41Q43.65-0.68 43.65-1.40L43.65-1.40L43.65-1.40Q45.94 0.10 48.77 0.31L48.77 0.31L47.48 2.91L47.95 3.21L47.95 3.21Q48.77 2.63 49.70 2.63L49.70 2.63L49.70 2.63Q51.30 2.63 51.54 4.10L51.54 4.10L51.54 4.10Q51.58 4.34 51.58 4.58L51.58 4.58L51.58 4.58Q51.58 6.36 50.21 6.80L50.21 6.80L50.21 6.80Q49.87 6.90 49.56 6.90L49.56 6.90L49.56 6.90Q48.19 6.87 47.17 5.54L47.17 5.54L46.62 5.95L46.62 5.95Q47.78 7.72 50.18 7.76L50.18 7.76L50.18 7.76Q52.43 7.76 53.56 6.32L53.56 6.32L53.56 6.32Q54.14 5.57 54.14 4.65L54.14 4.65L54.14 4.65Q54.14 2.80 52.23 2.05L52.23 2.05L52.23 2.05Q51.44 1.78 50.62 1.78L50.62 1.78L50.62 1.78Q49.63 1.78 48.84 2.12L48.84 2.12L49.63 0.34L49.63 0.34Q53.56 0.34 55.71-1.78L55.71-1.78L55.71-1.78Q57.18-3.28 57.18-5.37" fill="#00b0ff" stroke="none" stroke-width="none" transform="translate(-48.805023193359375,8.512763061523438)" style="fill: rgb(0, 176, 255);"></path></g><g class="path" style="opacity: 1; transform-origin: 19.42px -1.74224px; animation: 1.78571s linear -0.357143s infinite normal forwards running fade-d9f39c8a-940d-473f-8259-81df4446f51f;"><path d="M75.50-14.36L76.19-14.36L76.02-20.51L60.26-20.51L60.26-19.62L62.99-19.62L62.99-0.89L60.26-0.89L60.26 0L76.02 0L76.19-6.15L75.50-6.15L75.02-4.55L75.02-4.55Q74.17-1.64 72.50-1.06L72.50-1.06L72.50-1.06Q71.98-0.89 71.40-0.89L71.40-0.89L65.93-0.89L65.93-10.08L72.97-10.08L72.97-11.07L65.93-11.07L65.93-19.62L71.40-19.62L71.40-19.62Q73.86-19.62 74.92-16.30L74.92-16.30L74.92-16.30Q74.99-16.10 75.02-15.96L75.02-15.96L75.50-14.36" fill="#00b0ff" stroke="none" stroke-width="none" transform="translate(-48.805023193359375,8.512763061523438)" style="fill: rgb(0, 176, 255);"></path></g><g class="path" style="opacity: 1; transform-origin: 40.23px -1.74224px; animation: 1.78571s linear 0s infinite normal forwards running fade-d9f39c8a-940d-473f-8259-81df4446f51f;"><path d="M79.26 0L87.64 0L87.64-0.89L84.94-0.89L84.94-9.40L88.18-9.40L93.65 0L98.81 0L98.81 0Q98.81-0.75 98.40-0.85L98.40-0.85L98.40-0.85Q98.23-0.89 97.99-0.89L97.99-0.89L96.69-0.89L91.19-9.71L91.19-9.71Q94.44-10.49 95.63-13.09L95.63-13.09L95.63-13.09Q96.08-14.12 96.08-15.18L96.08-15.18L96.08-15.18Q96.08-17.74 93.86-19.28L93.86-19.28L93.86-19.28Q92.05-20.51 89.38-20.51L89.38-20.51L79.26-20.51L79.26-19.62L82.00-19.62L82.00-0.89L79.26-0.89L79.26 0zM84.94-19.62L88.35-19.62L88.35-19.62Q91.29-19.62 92.42-17.23L92.42-17.23L92.42-17.23Q92.87-16.24 92.87-15.14L92.87-15.14L92.87-15.14Q92.87-12.68 91.16-11.31L91.16-11.31L91.16-11.31Q90.00-10.39 88.46-10.39L88.46-10.39L84.94-10.39L84.94-19.62" fill="#00b0ff" stroke="none" stroke-width="none" transform="translate(-48.805023193359375,8.512763061523438)" style="fill: rgb(0, 176, 255);"></path></g></g>
</g>
</g>
<style id="fade-d9f39c8a-940d-473f-8259-81df4446f51f" data-anikit="">@keyframes fade-d9f39c8a-940d-473f-8259-81df4446f51f
{
  0% {
    animation-timing-function: cubic-bezier(0.6277,0.0816,0.7943,0.427);
    opacity: 1;
  }
  100% {
    opacity: 0;
  }
}</style></svg>