<?xml version="1.0" encoding="UTF-8"?>
<svg width="265px" height="30px" viewBox="0 0 265 30" version="1.1" xmlns="http://www.w3.org/2000/svg" xmlns:xlink="http://www.w3.org/1999/xlink">
    <title>logo-band</title>
    <defs>
        <linearGradient x1="90.2554899%" y1="50%" x2="0%" y2="50%" id="linearGradient-1">
            <stop stop-color="#FFFFFF" offset="0%"></stop>
            <stop stop-color="#FFFFFF" stop-opacity="0" offset="100%"></stop>
        </linearGradient>
    </defs>
    <g id="👉Method-View" stroke="none" stroke-width="1" fill="none" fill-rule="evenodd">
        <g id="PWI_Method_02_FooterAlternatives" transform="translate(-1212.000000, -932.000000)">
            <g id="logo-band-iyzico-copy-2" transform="translate(1212.000000, 932.000000)">
                <g id="Visa" transform="translate(201.000000, 5.000000)" fill="#FFFFFF">
                    <path d="M23.1104348,0.352608696 L15.1408696,19.6621739 L9.94217391,19.6621739 L6.02,4.25173913 C5.7826087,3.30434783 5.57521739,2.95565217 4.85217391,2.55521739 C3.66913043,1.9026087 1.71652174,1.2926087 0,0.913043478 L0.116086957,0.352608696 L8.48565217,0.352608696 C9.55173913,0.352608696 10.5108696,1.07304348 10.7547826,2.32 L12.8265217,13.4947826 L17.9430435,0.352608696 L23.1104348,0.352608696 Z M43.4813043,13.3578261 C43.5030435,8.26217391 36.5452174,7.97956522 36.5917391,5.7026087 C36.6069565,5.01086957 37.256087,4.27391304 38.6769565,4.08565217 C39.3813043,3.99304348 41.3247826,3.91869565 43.5282609,4.94956522 L44.39,0.853043478 C43.206087,0.418695652 41.6834783,2.47145299e-14 39.7891304,2.47145299e-14 C34.9265217,2.47145299e-14 31.506087,2.62304348 31.4786957,6.38217391 C31.4478261,9.16217391 33.9221739,10.7121739 35.7826087,11.6382609 C37.7008696,12.5843478 38.343913,13.1917391 38.3343478,14.0369565 C38.3208696,15.3326087 36.8043478,15.906087 35.3930435,15.9278261 C32.9182609,15.9669565 31.4843478,15.2486957 30.3413043,14.7073913 L29.4486957,18.9404348 C30.5995652,19.4756522 32.7204348,19.9413043 34.9165217,19.9652174 C40.0856522,19.9652174 43.466087,17.3726087 43.4813043,13.3578261 L43.4813043,13.3578261 Z M56.3217391,19.6621739 L60.8695652,19.6621739 L56.896087,0.352608696 L52.7008696,0.352608696 C51.7552174,0.352608696 50.9582609,0.909565217 50.6056522,1.76826087 L43.2252174,19.6621739 L48.3908696,19.6621739 L49.416087,16.7782609 L55.7256522,16.7782609 L56.3217391,19.6621739 Z M50.8313043,12.8208696 L53.4208696,5.56956522 L54.91,12.8208696 L50.8313043,12.8208696 Z M30.1386957,0.352608696 L26.0721739,19.6621739 L21.1534783,19.6621739 L25.2204348,0.352608696 L30.1386957,0.352608696 Z" id="Fill-3"></path>
                </g>
                <g id="mc_vrt_solid_rev-2" transform="translate(129.000000, 0.000000)" fill="#FFFFFE">
                    <path d="M19.8430659,2.62648352 C19.685,2.75082418 19.5303407,2.87891209 19.3790879,3.01074725 C16.7948462,5.2590989 15.159,8.56928571 15.159,12.2637363 C15.159,15.9581868 16.7948462,19.268033 19.3790879,21.5167253 C19.5303407,21.6485604 19.685,21.7763077 19.8430659,21.9006484 C20.0011319,21.7763077 20.1557912,21.6485604 20.307044,21.5167253 C22.8916264,19.268033 24.5271319,15.9581868 24.5271319,12.2637363 C24.5271319,8.56928571 22.8916264,5.2590989 20.307044,3.01074725 C20.1557912,2.87891209 20.0011319,2.75082418 19.8430659,2.62648352 L19.8430659,2.62648352 Z M27.4223956,0 C24.9117363,0 22.5775385,0.754901099 20.6333956,2.04974725 C20.7328681,2.13116484 20.8337033,2.21121978 20.9297692,2.29502198 C23.8192418,4.80874725 25.4758681,8.44221978 25.4758681,12.2637363 C25.4758681,16.0852527 23.8192418,19.7187253 20.9301099,22.2321099 C20.8343846,22.3155714 20.7328681,22.3963077 20.6333956,22.4777253 C22.5771978,23.7722308 24.9117363,24.5274725 27.4223956,24.5274725 C34.1953846,24.5274725 39.6861319,19.0367253 39.6861319,12.2637363 C39.6861319,5.49040659 34.1953846,0 27.4223956,0 Z M18.7563626,22.2321099 C18.8520879,22.3155714 18.9532637,22.395967 19.0527363,22.4777253 C17.1089341,23.7725714 14.7747363,24.5274725 12.2637363,24.5274725 C5.49040659,24.5274725 0,19.0367253 0,12.2637363 C0,5.49074725 5.49040659,0 12.2637363,0 C14.7743956,0 17.1089341,0.754901099 19.0527363,2.04974725 C18.9532637,2.13116484 18.8527692,2.21121978 18.7563626,2.29502198 C15.8672308,4.80874725 14.2102637,8.44221978 14.2102637,12.2637363 C14.2102637,16.0855934 15.8672308,19.7187253 18.7563626,22.2321099 Z M39.3018681,19.8631648 L39.3018681,19.3869231 L39.1778681,19.3869231 L39.0347912,19.7146374 L38.8917143,19.3869231 L38.7673736,19.3869231 L38.7673736,19.8631648 L38.8552637,19.8631648 L38.8552637,19.5041099 L38.9891429,19.8134286 L39.0800989,19.8134286 L39.2143187,19.5034286 L39.2143187,19.8631648 L39.3018681,19.8631648 Z M38.5149451,19.8631648 L38.5149451,19.4683407 L38.674033,19.4683407 L38.674033,19.3879451 L38.2686484,19.3879451 L38.2686484,19.4683407 L38.4277363,19.4683407 L38.4277363,19.8631648 L38.5149451,19.8631648 Z M38.8981868,30.4508571 L38.8981868,30.5309121 L38.9717692,30.5309121 C38.9888022,30.5309121 39.0024286,30.5275055 39.0123077,30.521033 C39.0225275,30.5145604 39.0272967,30.5043407 39.0272967,30.4903736 C39.0272967,30.4770879 39.0225275,30.4672088 39.0123077,30.4607363 C39.0024286,30.4542637 38.9888022,30.4508571 38.9717692,30.4508571 L38.8981868,30.4508571 Z M38.9727912,30.3946484 C39.0112857,30.3946484 39.0409231,30.4031648 39.062044,30.4201978 C39.0828242,30.4375714 39.0933846,30.4607363 39.0933846,30.4903736 C39.0933846,30.5152418 39.0848681,30.536022 39.0681758,30.552033 C39.0514835,30.568044 39.027978,30.5779231 38.9973187,30.5816703 L39.0957692,30.6951099 L39.0187802,30.6951099 L38.9274835,30.5823516 L38.8981868,30.5823516 L38.8981868,30.6951099 L38.8338022,30.6951099 L38.8338022,30.3946484 L38.9727912,30.3946484 Z M38.9537143,30.7983297 C38.9884615,30.7983297 39.0211648,30.7915165 39.0511429,30.7785714 C39.0814615,30.7652857 39.1076923,30.7472308 39.1305165,30.7244066 C39.1533407,30.7019231 39.1710549,30.675011 39.184,30.6443516 C39.1969451,30.6136923 39.2034176,30.580989 39.2034176,30.5459011 C39.2034176,30.5111538 39.1969451,30.4784505 39.184,30.4477912 C39.1710549,30.4171319 39.1533407,30.3902198 39.1305165,30.3673956 C39.1076923,30.3449121 39.0814615,30.3268571 39.0511429,30.3139121 C39.0211648,30.300967 38.9884615,30.2944945 38.9537143,30.2944945 C38.9182857,30.2944945 38.8849011,30.300967 38.8542418,30.3139121 C38.8232418,30.3268571 38.7963297,30.3449121 38.7735055,30.3673956 C38.751022,30.3902198 38.732967,30.4171319 38.720022,30.4477912 C38.7070769,30.4784505 38.7006044,30.5111538 38.7006044,30.5459011 C38.7006044,30.580989 38.7070769,30.6136923 38.720022,30.6443516 C38.732967,30.675011 38.751022,30.7019231 38.7735055,30.7244066 C38.7963297,30.7472308 38.8232418,30.7652857 38.8542418,30.7785714 C38.8849011,30.7915165 38.9182857,30.7983297 38.9537143,30.7983297 Z M38.9537143,30.2222747 C38.999022,30.2222747 39.0419451,30.2307912 39.0818022,30.2478242 C39.1216593,30.2645165 39.1567473,30.2876813 39.1863846,30.3173187 C39.2163626,30.3466154 39.2398681,30.381022 39.2572418,30.4201978 C39.2742747,30.4597143 39.2827912,30.5016154 39.2827912,30.5459011 C39.2827912,30.5905275 39.2742747,30.6320879 39.2572418,30.6712637 C39.2398681,30.7104396 39.2163626,30.7448462 39.1863846,30.7741429 C39.1567473,30.8034396 39.1216593,30.8266044 39.0818022,30.843978 C39.0419451,30.861011 38.999022,30.8695275 38.9537143,30.8695275 C38.907044,30.8695275 38.8637802,30.861011 38.8232418,30.843978 C38.7827033,30.8266044 38.7476154,30.8034396 38.717978,30.7741429 C38.6883407,30.7448462 38.6651758,30.7104396 38.6478022,30.6712637 C38.6307692,30.6320879 38.6222527,30.5905275 38.6222527,30.5459011 C38.6222527,30.5016154 38.6307692,30.4597143 38.6478022,30.4201978 C38.6651758,30.381022 38.6883407,30.3466154 38.717978,30.3173187 C38.7476154,30.2876813 38.7827033,30.2645165 38.8232418,30.2478242 C38.8637802,30.2307912 38.907044,30.2222747 38.9537143,30.2222747 Z M8.57541758,29.0660769 C8.57541758,28.4937692 8.95014286,28.024 9.56298901,28.024 C10.1489231,28.024 10.5440879,28.4733297 10.5440879,29.0660769 C10.5440879,29.6588242 10.1489231,30.1084945 9.56298901,30.1084945 C8.95014286,30.1084945 8.57541758,29.6383846 8.57541758,29.0660769 Z M11.2117802,29.0660769 L11.2117802,27.4380659 L10.5032088,27.4380659 L10.5032088,27.8332308 C10.2783736,27.5402637 9.93771429,27.3563077 9.47441758,27.3563077 C8.56179121,27.3563077 7.84640659,28.0716923 7.84640659,29.0660769 C7.84640659,30.0608022 8.56179121,30.7761868 9.47441758,30.7761868 C9.93771429,30.7761868 10.2783736,30.5922308 10.5032088,30.2992637 L10.5032088,30.6944286 L11.2117802,30.6944286 L11.2117802,29.0660769 Z M35.1362857,29.0660769 C35.1362857,28.4937692 35.511011,28.024 36.1241978,28.024 C36.7097912,28.024 37.104956,28.4733297 37.104956,29.0660769 C37.104956,29.6588242 36.7097912,30.1084945 36.1241978,30.1084945 C35.511011,30.1084945 35.1362857,29.6383846 35.1362857,29.0660769 Z M37.7726484,29.0660769 L37.7726484,26.1299341 L37.0640769,26.1299341 L37.0640769,27.8332308 C36.8392418,27.5402637 36.4985824,27.3563077 36.0356264,27.3563077 C35.1226593,27.3563077 34.4072747,28.0716923 34.4072747,29.0660769 C34.4072747,30.0608022 35.1226593,30.7761868 36.0356264,30.7761868 C36.4985824,30.7761868 36.8392418,30.5922308 37.0640769,30.2992637 L37.0640769,30.6944286 L37.7726484,30.6944286 L37.7726484,29.0660769 Z M19.9994286,27.9899341 C20.4559121,27.9899341 20.7488791,28.2757473 20.8238242,28.7799231 L19.1344945,28.7799231 C19.2090989,28.3098132 19.4952527,27.9899341 19.9994286,27.9899341 Z M20.0130549,27.3563077 C19.0592088,27.3563077 18.3918571,28.0512527 18.3918571,29.0660769 C18.3918571,30.1016813 19.0864615,30.7761868 20.0607473,30.7761868 C20.5512967,30.7761868 21.000967,30.6532088 21.3961319,30.3197033 L21.0486593,29.7950879 C20.7761319,30.0131099 20.4286593,30.1357473 20.1016264,30.1357473 C19.6451429,30.1357473 19.2295385,29.9245385 19.1273407,29.3386044 L21.546022,29.3386044 C21.5528352,29.250033 21.5593077,29.1614615 21.5593077,29.0660769 C21.5528352,28.0512527 20.926022,27.3563077 20.0130549,27.3563077 Z M28.5625824,29.0660769 C28.5625824,28.4937692 28.936967,28.024 29.5501538,28.024 C30.1360879,28.024 30.5312527,28.4733297 30.5312527,29.0660769 C30.5312527,29.6588242 30.1360879,30.1084945 29.5501538,30.1084945 C28.936967,30.1084945 28.5625824,29.6383846 28.5625824,29.0660769 Z M31.1989451,29.0660769 L31.1989451,27.4380659 L30.4903736,27.4380659 L30.4903736,27.8332308 C30.2655385,27.5402637 29.9248791,27.3563077 29.4615824,27.3563077 C28.548956,27.3563077 27.8335714,28.0716923 27.8335714,29.0660769 C27.8335714,30.0608022 28.548956,30.7761868 29.4615824,30.7761868 C29.9248791,30.7761868 30.2655385,30.5922308 30.4903736,30.2992637 L30.4903736,30.6944286 L31.1989451,30.6944286 L31.1989451,29.0660769 Z M24.5635824,29.0660769 C24.5635824,30.053989 25.2517143,30.7761868 26.3009451,30.7761868 C26.7914945,30.7761868 27.1181868,30.6671758 27.4724725,30.3878352 L27.1318132,29.8155275 C26.8660989,30.0062967 26.5867582,30.1084945 26.2805055,30.1084945 C25.715011,30.1016813 25.2994066,29.6928901 25.2994066,29.0660769 C25.2994066,28.4396044 25.715011,28.0308132 26.2805055,28.024 C26.5867582,28.024 26.8660989,28.1258571 27.1318132,28.316967 L27.4724725,27.7446593 C27.1181868,27.4653187 26.7914945,27.3563077 26.3009451,27.3563077 C25.2517143,27.3563077 24.5635824,28.0785055 24.5635824,29.0660769 Z M33.6922308,27.3563077 C33.2834396,27.3563077 33.0177253,27.5470769 32.8337692,27.8332308 L32.8337692,27.4380659 L32.132011,27.4380659 L32.132011,30.6944286 L32.8405824,30.6944286 L32.8405824,28.8684945 C32.8405824,28.3305934 33.0722308,28.0308132 33.5355275,28.0308132 C33.6786044,28.0308132 33.8284945,28.0512527 33.9783846,28.1125714 L34.1964066,27.4448791 C34.0393626,27.3835604 33.834967,27.3563077 33.6922308,27.3563077 Z M14.7130769,27.696967 C14.3724176,27.4721319 13.9023077,27.3563077 13.3848462,27.3563077 C12.5604505,27.3563077 12.029022,27.7514725 12.029022,28.3983846 C12.029022,28.9298132 12.4241868,29.2568462 13.1531978,29.359044 L13.487044,29.4067363 C13.8750549,29.4612418 14.0593516,29.5634396 14.0593516,29.7473956 C14.0593516,29.9994835 13.8001099,30.1425604 13.3167143,30.1425604 C12.8261648,30.1425604 12.4718791,29.9858571 12.2334176,29.8019011 L11.8995714,30.3537692 C12.2879231,30.6395824 12.7784725,30.7761868 13.3099011,30.7761868 C14.2497802,30.7761868 14.7948352,30.3333297 14.7948352,29.7133297 C14.7948352,29.141022 14.3656044,28.8412418 13.6573736,28.739044 L13.3235275,28.6913516 C13.0169341,28.6504725 12.7716593,28.5894945 12.7716593,28.3714725 C12.7716593,28.133011 13.0033077,27.9899341 13.3916593,27.9899341 C13.8072637,27.9899341 14.2089011,28.1466374 14.4064835,28.2692747 L14.7130769,27.696967 Z M23.8485385,27.3563077 C23.4397473,27.3563077 23.174033,27.5470769 22.9900769,27.8332308 L22.9900769,27.4380659 L22.2883187,27.4380659 L22.2883187,30.6944286 L22.9968901,30.6944286 L22.9968901,28.8684945 C22.9968901,28.3305934 23.2285385,28.0308132 23.6918352,28.0308132 C23.8349121,28.0308132 23.9848022,28.0512527 24.1343516,28.1125714 L24.3523736,27.4448791 C24.1956703,27.3835604 23.9912747,27.3563077 23.8485385,27.3563077 Z M17.8059231,27.4380659 L16.6476813,27.4380659 L16.6476813,26.4501538 L15.9326374,26.4501538 L15.9326374,27.4380659 L15.2717582,27.4380659 L15.2717582,28.0853187 L15.9326374,28.0853187 L15.9326374,29.5702527 C15.9326374,30.3265165 16.2256044,30.7761868 17.0632857,30.7761868 C17.3698791,30.7761868 17.7241648,30.6804615 17.949,30.5240989 L17.7446044,29.9177253 C17.5333956,30.0403626 17.3017473,30.1016813 17.1177912,30.1016813 C16.7635055,30.1016813 16.6476813,29.8836593 16.6476813,29.5566264 L16.6476813,28.0853187 L17.8059231,28.0853187 L17.8059231,27.4380659 Z M7.21959341,30.6944286 L7.21959341,28.6504725 C7.21959341,27.8809231 6.72904396,27.3631209 5.93905495,27.3563077 C5.52345055,27.3494945 5.09421978,27.4789451 4.79443956,27.9354286 C4.5696044,27.5743297 4.21531868,27.3563077 3.7182967,27.3563077 C3.37082418,27.3563077 3.03016484,27.4585055 2.76445055,27.840044 L2.76445055,27.4380659 L2.05587912,27.4380659 L2.05587912,30.6944286 L2.77126374,30.6944286 L2.77126374,28.8889341 C2.77126374,28.3234396 3.08467033,28.024 3.56840659,28.024 C4.03817582,28.024 4.27663736,28.3305934 4.27663736,28.8821209 L4.27663736,30.6944286 L4.99202198,30.6944286 L4.99202198,28.8889341 C4.99202198,28.3234396 5.31905495,28.024 5.78916484,28.024 C6.2729011,28.024 6.50420879,28.3305934 6.50420879,28.8821209 L6.50420879,30.6944286 L7.21959341,30.6944286 L7.21959341,30.6944286 Z" id="mc_vrt_solid_rev"></path>
                </g>
                <g id="Group" transform="translate(0.000000, 0.761905)">
                    <path d="M52.80358,3.95309044 C53.4023794,3.64708353 54.1410993,3.8755569 54.4534379,4.46280716 L54.4534379,4.46280716 L57.0770217,9.41994225 L59.7009065,4.46280716 C60.013245,3.8755569 60.7519649,3.64708353 61.3513661,3.95309044 C61.9510682,4.25850775 62.1836671,4.98284203 61.8716295,5.57009228 L61.8716295,5.57009228 L56.2922635,16.1170126 C56.0822324,16.5105764 55.6811271,16.7434718 55.2589584,16.7605705 C55.0513345,16.770299 54.8385953,16.7269628 54.6412021,16.6261397 C54.0418009,16.3210172 53.808901,15.5966829 54.1212396,15.0091379 L54.1212396,15.0091379 L55.6976768,12.0227698 L52.2824139,5.57009228 C51.9700754,4.98284203 52.2029752,4.25909736 52.80358,3.95309044 Z M82.1554924,3.65852194 C83.4779664,3.65852194 84.7216035,4.16322698 85.6568138,5.07918409 C86.1355524,5.547923 86.1355524,6.30704419 85.6568138,6.77489869 C85.1789779,7.24304799 84.4047514,7.24304799 83.9266146,6.77489869 C83.4532922,6.31117145 82.8247033,6.05587089 82.1554924,6.05587089 C81.4856796,6.05587089 80.8570907,6.31117145 80.3834674,6.77489869 C79.910446,7.23862592 79.649562,7.85506181 79.649562,8.51070668 C79.649562,9.16605674 79.910446,9.78219783 80.3834674,10.2465147 C80.8570907,10.7096523 81.4856796,10.9652477 82.1554924,10.9652477 C82.8247033,10.9652477 83.4532922,10.7096523 83.9266146,10.2465147 C84.4047514,9.77807057 85.1789779,9.77807057 85.6568138,10.2465147 C86.1355524,10.714664 86.1355524,11.4731956 85.6568138,11.9413449 C84.7216035,12.857302 83.4779664,13.362007 82.1554924,13.362007 C80.8324165,13.362007 79.5887794,12.857302 78.6535691,11.9413449 C77.7183588,11.025093 77.2032108,9.80666659 77.2032108,8.51070668 C77.2032108,7.21504158 77.7183588,5.9957308 78.6535691,5.07918409 C79.5887794,4.16322698 80.8324165,3.65852194 82.1554924,3.65852194 Z M92.0477184,3.65861038 C94.7781233,3.65861038 97,5.83574048 97,8.51079512 C97,11.1858498 94.7781233,13.3620954 92.0477184,13.3620954 C89.3176145,13.3620954 87.0957378,11.1858498 87.0957378,8.51079512 C87.0957378,5.83574048 89.3176145,3.65861038 92.0477184,3.65861038 Z M49.4700729,3.81748044 C50.1453019,3.81748044 50.6932485,4.35372955 50.6932485,5.01586011 L50.6932485,5.01586011 L50.6932485,12.0263075 C50.6932485,12.6878484 50.1453019,13.2246871 49.4700729,13.2246871 C48.7945429,13.2246871 48.2465963,12.6878484 48.2465963,12.0263075 L48.2465963,12.0263075 L48.2465963,5.01586011 C48.2465963,4.35372955 48.7945429,3.81748044 49.4700729,3.81748044 Z M70.1055423,3.817392 C70.3968176,3.80736865 70.6926065,3.89993722 70.9333298,4.09745613 C71.451186,4.52315361 71.5182876,5.27903195 71.0843837,5.78668504 L71.0843837,5.78668504 L66.7667092,10.8275446 L70.147368,10.8275446 C70.822898,10.8275446 71.3708446,11.3643833 71.3708446,12.026219 C71.3708446,12.68776 70.822898,13.2245987 70.147368,13.2245987 L70.147368,13.2245987 L64.1428244,13.2245987 C63.8647889,13.2245987 63.5858507,13.1332094 63.3562608,12.9445346 C62.8387055,12.5191319 62.7719048,11.7629588 63.2058087,11.2561901 L63.2058087,11.2561901 L67.5240851,6.21415134 L64.6997981,6.21415134 C64.0248699,6.21415134 63.4769234,5.67790223 63.4769234,5.01606648 C63.4769234,4.35393591 64.0248699,3.817392 64.6997981,3.817392 L64.6997981,3.817392 Z M74.376336,3.81748044 C75.0521669,3.81748044 75.5995117,4.35372955 75.5995117,5.01586011 L75.5995117,5.01586011 L75.5995117,12.0263075 C75.5995117,12.6878484 75.0521669,13.2246871 74.376336,13.2246871 C73.7008061,13.2246871 73.1528595,12.6878484 73.1528595,12.0263075 L73.1528595,12.0263075 L73.1528595,5.01586011 C73.1528595,4.35372955 73.7008061,3.81748044 74.376336,3.81748044 Z M92.0477184,6.05595933 C90.6665681,6.05595933 89.542089,7.15705356 89.542089,8.51079512 C89.542089,9.86394707 90.6665681,10.9653361 92.0477184,10.9653361 C93.4291697,10.9653361 94.5530469,9.86394707 94.5530469,8.51079512 C94.5530469,7.15705356 93.4291697,6.05595933 92.0477184,6.05595933 Z M49.4700729,-1.99840144e-13 C50.2160144,-1.99840144e-13 50.8217346,0.59344115 50.8217346,1.32485073 C50.8217346,2.05655512 50.2160144,2.64970147 49.4700729,2.64970147 C48.7229277,2.64970147 48.1181102,2.05655512 48.1181102,1.32485073 C48.1181102,0.59344115 48.7229277,-1.99840144e-13 49.4700729,-1.99840144e-13 Z M74.376336,-1.99840144e-13 C75.1228794,-1.99840144e-13 75.7279978,0.59344115 75.7279978,1.32485073 C75.7279978,2.05655512 75.1228794,2.64970147 74.376336,2.64970147 C73.6294918,2.64970147 73.0243734,2.05655512 73.0243734,1.32485073 C73.0243734,0.59344115 73.6294918,-1.99840144e-13 74.376336,-1.99840144e-13 Z" id="Combined-Shape" fill="#FFFFFF"></path>
                    <path d="M66.708643,20.4523488 C68.7783092,20.4523488 70.8240554,22.1905313 70.8240554,24.7028054 C70.8240554,27.2150795 68.7783092,28.952381 66.708643,28.952381 C64.6392684,28.952381 62.5935222,27.2150795 62.5935222,24.7028054 C62.5935222,22.1905313 64.6392684,20.4523488 66.708643,20.4523488 Z M77.04516,20.3690958 C77.3879166,20.3690958 77.6837082,20.6551221 77.6837082,21.0001744 L77.6837082,28.3097028 C77.6837082,28.6553423 77.3879166,28.9407813 77.04516,28.9407813 C76.7021117,28.9407813 76.4182801,28.6553423 76.4182801,28.3097028 L76.4182801,27.6668777 C76.3357268,28.2025163 75.6020819,28.9522341 74.4787155,28.9522341 C73.1663225,28.9522341 71.5937262,27.9285301 71.5937262,25.774523 C71.5937262,23.6548743 73.1779908,22.6073838 74.4787155,22.6073838 C75.3538387,22.6073838 76.1108202,23.0602098 76.4182801,23.7500206 L76.4182801,23.2739954 C76.4182801,23.2384623 76.4182801,23.1905955 76.4302401,23.1550624 L76.4302401,21.0001744 C76.4302401,20.6551221 76.7143635,20.3690958 77.04516,20.3690958 Z M48.6265568,22.6435041 C48.8864684,22.6435041 49.1110833,22.8696235 49.1110833,23.1436097 L49.1110833,28.4286357 C49.1110833,28.7149556 48.8864684,28.9407813 48.6265568,28.9407813 C48.3546852,28.9407813 48.1297785,28.7149556 48.1297785,28.4286357 L48.1297785,23.1436097 C48.1297785,22.8696235 48.3546852,22.6435041 48.6265568,22.6435041 Z M50.9206046,20.3691545 C51.1810996,20.3691545 51.4057145,20.5958612 51.4057145,20.8575136 L51.4057145,28.4286944 C51.4057145,28.6906405 51.1810996,28.9285063 50.9206046,28.9285063 C50.6484413,28.9285063 50.4241181,28.6906405 50.4241181,28.4286944 L50.4241181,20.8575136 C50.4241181,20.5958612 50.6484413,20.3691545 50.9206046,20.3691545 Z M55.497732,22.6074425 C56.8457134,22.6074425 58.4652746,23.6790133 58.4652746,25.607782 C58.4652746,25.9880737 58.2406597,26.1672072 57.8389782,26.1672072 L53.4872825,26.1434206 C53.5934641,27.4766438 54.6106489,28.1074287 55.627542,28.1074287 C56.1712851,28.1074287 56.6088467,27.9526691 56.9988599,27.6546027 C57.1765099,27.5359634 57.2829832,27.4766438 57.4127932,27.4766438 C57.6379915,27.4766438 57.7794698,27.6314034 57.7794698,27.8454827 C57.7794698,27.9764557 57.7205448,28.1074287 57.5192665,28.2859749 C57.0464083,28.7023869 56.3492269,28.9285063 55.6036219,28.9285063 C54.0899506,28.9285063 52.4703894,27.9285889 52.4703894,25.7860346 C52.4703894,23.6434803 54.149459,22.6074425 55.497732,22.6074425 Z M81.8114016,22.6073838 C83.1593829,22.6073838 84.7795276,23.6789546 84.7795276,25.5716029 C84.7795276,26.059962 84.5073643,26.2505483 83.9989177,26.2505483 L80.0375269,26.2382145 C80.1673369,27.3453184 81.0307917,27.8932908 81.9767998,27.8932908 C82.4619098,27.8932908 82.792998,27.7743578 83.1593829,27.5482385 C83.3603695,27.441052 83.4904712,27.3576522 83.6558694,27.3576522 C83.9280327,27.3576522 84.0937227,27.5482385 84.0937227,27.8098909 C84.0937227,27.9649442 84.0345061,28.1314502 83.7743028,28.3452358 C83.3250729,28.7149556 82.674273,28.9284475 81.9292515,28.9284475 C80.3925352,28.9284475 78.7487622,27.9408639 78.7487622,25.7859758 C78.7487622,23.6434215 80.4634202,22.6073838 81.8114016,22.6073838 Z M74.6799939,23.6904074 C73.8168307,23.6904074 72.8469026,24.3696464 72.8469026,25.774523 C72.8469026,27.1908524 73.8168307,27.8692105 74.6799939,27.8692105 C75.484232,27.8692105 76.4774968,27.2501721 76.4774968,25.774523 C76.4774968,24.2862465 75.484232,23.6904074 74.6799939,23.6904074 Z M66.708643,21.6669328 C65.2658566,21.6669328 63.9298353,22.8935569 63.9298353,24.7028054 C63.9298353,26.5120539 65.2658566,27.7263442 66.708643,27.7263442 C68.1514293,27.7263442 69.4877424,26.5120539 69.4877424,24.7028054 C69.4877424,22.8935569 68.1630976,21.6669328 66.708643,21.6669328 Z M55.497732,23.4769742 C54.6223172,23.4769742 53.5934641,24.0716387 53.4872825,25.4048619 L57.5075982,25.4048619 C57.4014166,24.0716387 56.3842318,23.4769742 55.497732,23.4769742 Z M81.8114016,23.7027411 C81.0307917,23.7027411 80.1440002,24.2028467 80.0375269,25.3337371 L83.5613561,25.3337371 C83.4551745,24.2028467 82.6039714,23.7027411 81.8114016,23.7027411 Z M48.6265568,20.2501629 C48.8864684,20.2501629 49.1230433,20.4762822 49.1230433,20.7502684 C49.1230433,21.0239609 48.8864684,21.250374 48.6265568,21.250374 C48.3546852,21.250374 48.1181102,21.0239609 48.1181102,20.7502684 C48.1181102,20.4762822 48.3546852,20.2501629 48.6265568,20.2501629 Z M68.1630976,18.2857143 C68.5414425,18.2857143 68.8489025,18.5952335 68.8489025,18.9649533 C68.8489025,19.3337922 68.5414425,19.6433114 68.1630976,19.6433114 C67.7847527,19.6433114 67.4772928,19.3337922 67.4772928,18.9649533 C67.4772928,18.5952335 67.7847527,18.2857143 68.1630976,18.2857143 Z M65.25448,18.2857143 C65.6325332,18.2857143 65.9397014,18.5952335 65.9397014,18.9649533 C65.9397014,19.3337922 65.6325332,19.6433114 65.25448,19.6433114 C64.8758434,19.6433114 64.5683834,19.3337922 64.5683834,18.9649533 C64.5683834,18.5952335 64.8758434,18.2857143 65.25448,18.2857143 Z" id="Combined-Shape" fill="#FFFFFF"></path>
                    <g fill="url(#linearGradient-1)" id="Group-3">
                        <path d="M3.78070866,0 C1.69274929,0 0,1.70531217 0,3.80952381 L0,26.6666667 C0,28.7708783 1.69274929,30.4761905 3.78070866,30.4761905 L32.3232107,30.4761905 C33.732995,30.4761905 35.0254932,29.6861799 35.6764472,28.4258201 L41.581074,16.9975873 C41.8606784,16.4557884 42.0028331,15.8635344 42.007874,15.2706032 L42.007874,15.2055873 C42.0028331,14.6126561 41.8606784,14.0204021 41.581074,13.4789418 L35.6764472,2.05037037 C35.0254932,0.790349206 33.732995,0 32.3232107,0 L3.78070866,0 Z" id="Fill-1"></path>
                    </g>
                </g>
            </g>
        </g>
    </g>
</svg>